<svg xmlns="http://www.w3.org/2000/svg" width="340" height="100" viewBox="0 0 340 100" fill="none"><path d="M219.998 0L119.998 0V19.9976L219.998 19.9976V0Z" fill="white"></path><path d="M219.998 40L119.998 40V59.9976L219.998 59.9976V40Z" fill="white"></path><path d="M219.998 80L119.998 80V99.9976L219.998 99.9976V80Z" fill="white"></path><path d="M315.064 0L240 0L240 100L315.064 100C321.678 99.9615 328.009 97.312 332.68 92.6281C337.35 87.9442 339.981 81.6052 340 74.9909V24.997C339.981 18.3838 337.349 12.046 332.679 7.36407C328.008 2.68212 321.677 0.0352684 315.064 0V0ZM315.064 19.9976C316.384 20.0164 317.645 20.5492 318.578 21.4827C319.512 22.4162 320.044 23.6769 320.063 24.997V74.9909C320.06 76.3158 319.532 77.5856 318.595 78.5224C317.659 79.4593 316.389 79.9871 315.064 79.9903L259.998 79.9903V19.9976L315.064 19.9976Z" fill="white"></path><path d="M100 100L24.997 100C18.3733 99.9807 12.0264 97.3406 7.34271 92.6564C2.65904 87.9722 0.019255 81.6245 0 75L0 25C0.019255 18.3755 2.65904 12.0278 7.34271 7.3436C12.0264 2.65936 18.3733 0.0192574 24.997 0L100 0V20L24.997 20C23.672 20.0032 22.4023 20.531 21.4654 21.468C20.5285 22.405 20.0008 23.6749 19.9976 25L19.9976 75C20.0134 76.3212 20.5451 77.5838 21.4793 78.5181C22.4135 79.4524 23.6759 79.9842 24.997 80L100 80V100Z" fill="white"></path></svg>